<mxfile host="65bd71144e">
    <diagram id="CprJfZTJ5oxMJRHnkWTq" name="Page-1">
        <mxGraphModel dx="832" dy="307" grid="1" gridSize="10" guides="1" tooltips="1" connect="1" arrows="1" fold="1" page="1" pageScale="1" pageWidth="850" pageHeight="1100" math="0" shadow="0">
            <root>
                <mxCell id="0"/>
                <mxCell id="1" parent="0"/>
                <mxCell id="24" value="" style="swimlane;html=1;childLayout=stackLayout;resizeParent=1;resizeParentMax=0;horizontal=1;startSize=0;horizontalStack=0;whiteSpace=wrap;" parent="1" vertex="1">
                    <mxGeometry x="14" y="26" width="1070" height="1380" as="geometry"/>
                </mxCell>
                <mxCell id="25" value="Kafka TopicPartition" style="swimlane;html=1;startSize=20;horizontal=0;" parent="24" vertex="1">
                    <mxGeometry width="1070" height="170" as="geometry"/>
                </mxCell>
                <mxCell id="56" value="&lt;font style=&quot;background-color: rgb(255, 255, 255);&quot; color=&quot;#000000&quot;&gt;event is written to kafka topic&lt;/font&gt;" style="ellipse;whiteSpace=wrap;html=1;" vertex="1" parent="25">
                    <mxGeometry x="56" y="45" width="120" height="80" as="geometry"/>
                </mxCell>
                <mxCell id="34" value="librdkafka" style="swimlane;html=1;startSize=20;horizontal=0;" parent="24" vertex="1">
                    <mxGeometry y="170" width="1070" height="300" as="geometry"/>
                </mxCell>
                <mxCell id="40" value="" style="edgeStyle=none;html=1;" parent="34" source="35" target="39" edge="1">
                    <mxGeometry relative="1" as="geometry"/>
                </mxCell>
                <mxCell id="42" style="edgeStyle=orthogonalEdgeStyle;html=1;entryX=0.5;entryY=0;entryDx=0;entryDy=0;exitX=1;exitY=0.5;exitDx=0;exitDy=0;" parent="34" source="35" target="47" edge="1">
                    <mxGeometry relative="1" as="geometry">
                        <mxPoint x="230" y="110" as="targetPoint"/>
                    </mxGeometry>
                </mxCell>
                <mxCell id="35" value="poll()" style="rounded=0;whiteSpace=wrap;html=1;fillColor=#60a917;fontColor=#ffffff;strokeColor=#2D7600;" parent="34" vertex="1">
                    <mxGeometry x="56" y="14" width="120" height="80" as="geometry"/>
                </mxCell>
                <mxCell id="39" value="consumer.poll()" style="rounded=0;whiteSpace=wrap;html=1;fillColor=#60a917;fontColor=#ffffff;strokeColor=#2D7600;" parent="34" vertex="1">
                    <mxGeometry x="56" y="199" width="120" height="80" as="geometry"/>
                </mxCell>
                <mxCell id="47" value="&lt;p style=&quot;line-height: 100%;&quot;&gt;&lt;br&gt;&lt;span style=&quot;color: rgb(240, 240, 240); font-family: Helvetica; font-size: 12px; font-style: normal; font-variant-ligatures: normal; font-variant-caps: normal; font-weight: 400; letter-spacing: normal; orphans: 2; text-align: center; text-indent: 0px; text-transform: none; widows: 2; word-spacing: 0px; -webkit-text-stroke-width: 0px; text-decoration-thickness: initial; text-decoration-style: initial; text-decoration-color: initial; float: none; display: inline !important;&quot;&gt;message Queue per TopicPartition&lt;/span&gt;&lt;br&gt;&lt;br&gt;&lt;/p&gt;" style="shape=parallelogram;perimeter=parallelogramPerimeter;whiteSpace=wrap;html=1;fixedSize=1;sketch=0;size=20;fillColor=#60a917;fontColor=#ffffff;strokeColor=#2D7600;" parent="34" vertex="1">
                    <mxGeometry x="156" y="107" width="154" height="76" as="geometry"/>
                </mxCell>
                <mxCell id="26" value="ConfluentKafka Connector" style="swimlane;html=1;startSize=20;horizontal=0;" parent="24" vertex="1">
                    <mxGeometry y="470" width="1070" height="190" as="geometry"/>
                </mxCell>
                <mxCell id="3" value="_get_raw_event()&lt;br&gt;takes event from the topic" style="rounded=0;whiteSpace=wrap;html=1;fillColor=#60a917;fontColor=#ffffff;strokeColor=#2D7600;" parent="26" vertex="1">
                    <mxGeometry x="56" y="55" width="120" height="80" as="geometry"/>
                </mxCell>
                <mxCell id="45" value="" style="edgeStyle=orthogonalEdgeStyle;html=1;" parent="26" source="5" target="44" edge="1">
                    <mxGeometry relative="1" as="geometry"/>
                </mxCell>
                <mxCell id="5" value="_get_event()&lt;br&gt;parses raw event in json" style="rounded=0;whiteSpace=wrap;html=1;fillColor=#60a917;fontColor=#ffffff;strokeColor=#2D7600;" parent="26" vertex="1">
                    <mxGeometry x="246" y="55" width="120" height="80" as="geometry"/>
                </mxCell>
                <mxCell id="6" value="" style="edgeStyle=none;html=1;" parent="26" source="3" target="5" edge="1">
                    <mxGeometry relative="1" as="geometry"/>
                </mxCell>
                <mxCell id="44" value="get_next()" style="rounded=0;whiteSpace=wrap;html=1;fillColor=#60a917;fontColor=#ffffff;strokeColor=#2D7600;" parent="26" vertex="1">
                    <mxGeometry x="446" y="58" width="120" height="75" as="geometry"/>
                </mxCell>
                <mxCell id="27" value="Pipeline" style="swimlane;html=1;startSize=20;horizontal=0;" parent="24" vertex="1">
                    <mxGeometry y="660" width="1070" height="180" as="geometry"/>
                </mxCell>
                <mxCell id="7" value="events goes into pipeline" style="rounded=0;whiteSpace=wrap;html=1;fillColor=#60a917;fontColor=#ffffff;strokeColor=#2D7600;" parent="27" vertex="1">
                    <mxGeometry x="447" y="50" width="120" height="80" as="geometry"/>
                </mxCell>
                <mxCell id="11" value="event given back to pipeline" style="rounded=0;whiteSpace=wrap;html=1;fillColor=#60a917;fontColor=#ffffff;strokeColor=#2D7600;" parent="27" vertex="1">
                    <mxGeometry x="618" y="53" width="120" height="80" as="geometry"/>
                </mxCell>
                <mxCell id="28" value="Processor" style="swimlane;html=1;startSize=20;horizontal=0;" parent="24" vertex="1">
                    <mxGeometry y="840" width="1070" height="180" as="geometry"/>
                </mxCell>
                <mxCell id="9" value="event being processed by processors" style="rounded=0;whiteSpace=wrap;html=1;fillColor=#60a917;fontColor=#ffffff;strokeColor=#2D7600;" parent="28" vertex="1">
                    <mxGeometry x="447" y="63" width="120" height="80" as="geometry"/>
                </mxCell>
                <mxCell id="29" value="Output Connector" style="swimlane;html=1;startSize=20;horizontal=0;" parent="24" vertex="1">
                    <mxGeometry y="1020" width="1070" height="180" as="geometry"/>
                </mxCell>
                <mxCell id="31" value="" style="edgeStyle=orthogonalEdgeStyle;html=1;" parent="29" source="13" target="30" edge="1">
                    <mxGeometry relative="1" as="geometry"/>
                </mxCell>
                <mxCell id="13" value="event is stored in backlog" style="rounded=0;whiteSpace=wrap;html=1;fillColor=#60a917;fontColor=#ffffff;strokeColor=#2D7600;" parent="29" vertex="1">
                    <mxGeometry x="701" y="63" width="120" height="80" as="geometry"/>
                </mxCell>
                <mxCell id="30" value="backlog full or flush timeout exceeded" style="rounded=0;whiteSpace=wrap;html=1;fillColor=#60a917;fontColor=#ffffff;strokeColor=#2D7600;" parent="29" vertex="1">
                    <mxGeometry x="881" y="63" width="120" height="80" as="geometry"/>
                </mxCell>
                <mxCell id="48" value="Opensearch" style="swimlane;html=1;startSize=20;horizontal=0;" parent="24" vertex="1">
                    <mxGeometry y="1200" width="1070" height="180" as="geometry"/>
                </mxCell>
                <mxCell id="53" value="event is written to index in Opensearch" style="ellipse;whiteSpace=wrap;html=1;" parent="48" vertex="1">
                    <mxGeometry x="881" y="63" width="120" height="80" as="geometry"/>
                </mxCell>
                <mxCell id="8" value="" style="edgeStyle=orthogonalEdgeStyle;html=1;exitX=0.5;exitY=1;exitDx=0;exitDy=0;" parent="24" source="44" target="7" edge="1">
                    <mxGeometry relative="1" as="geometry"/>
                </mxCell>
                <mxCell id="10" value="" style="edgeStyle=none;html=1;" parent="24" source="7" target="9" edge="1">
                    <mxGeometry relative="1" as="geometry"/>
                </mxCell>
                <mxCell id="12" value="" style="edgeStyle=orthogonalEdgeStyle;html=1;" parent="24" source="9" target="11" edge="1">
                    <mxGeometry relative="1" as="geometry"/>
                </mxCell>
                <mxCell id="14" value="" style="edgeStyle=orthogonalEdgeStyle;html=1;entryX=0.5;entryY=0;entryDx=0;entryDy=0;" parent="24" source="11" target="13" edge="1">
                    <mxGeometry relative="1" as="geometry">
                        <Array as="points">
                            <mxPoint x="761" y="774"/>
                        </Array>
                    </mxGeometry>
                </mxCell>
                <mxCell id="38" value="" style="edgeStyle=none;html=1;" parent="24" source="56" target="35" edge="1">
                    <mxGeometry relative="1" as="geometry">
                        <mxPoint x="116" y="145" as="sourcePoint"/>
                        <Array as="points">
                            <mxPoint x="116" y="174"/>
                        </Array>
                    </mxGeometry>
                </mxCell>
                <mxCell id="43" value="" style="edgeStyle=orthogonalEdgeStyle;html=1;" parent="24" source="39" target="3" edge="1">
                    <mxGeometry relative="1" as="geometry"/>
                </mxCell>
                <mxCell id="54" value="" style="edgeStyle=orthogonalEdgeStyle;html=1;" parent="24" source="30" target="53" edge="1">
                    <mxGeometry relative="1" as="geometry"/>
                </mxCell>
            </root>
        </mxGraphModel>
    </diagram>
</mxfile>